<svg xmlns="http://www.w3.org/2000/svg" xmlns:xlink="http://www.w3.org/1999/xlink" width="293" zoomAndPan="magnify" viewBox="0 0 219.75 98.249997" height="131" preserveAspectRatio="xMidYMid meet" version="1.0"><defs><g/><clipPath id="fcc5c7bb09"><path d="M 0.707031 0 L 218.792969 0 L 218.792969 97.503906 L 0.707031 97.503906 Z M 0.707031 0 " clip-rule="nonzero"/></clipPath><clipPath id="9353318f51"><path d="M 108 0.679688 L 128 0.679688 L 128 22 L 108 22 Z M 108 0.679688 " clip-rule="nonzero"/></clipPath><clipPath id="ff1d22dd87"><path d="M 115 13 L 134.230469 13 L 134.230469 53.527344 L 115 53.527344 Z M 115 13 " clip-rule="nonzero"/></clipPath><clipPath id="814117cd25"><path d="M 85.105469 13 L 125 13 L 125 53.527344 L 85.105469 53.527344 Z M 85.105469 13 " clip-rule="nonzero"/></clipPath><clipPath id="aa81558d23"><path d="M 95 0.679688 L 115 0.679688 L 115 22 L 95 22 Z M 95 0.679688 " clip-rule="nonzero"/></clipPath></defs><g clip-path="url(#fcc5c7bb09)"><path fill="#ffffff" d="M 0.707031 0 L 218.792969 0 L 218.792969 97.503906 L 0.707031 97.503906 Z M 0.707031 0 " fill-opacity="1" fill-rule="nonzero"/></g><g clip-path="url(#9353318f51)"><path fill="#465b52" d="M 126.453125 21.886719 C 125.933594 21.886719 125.507812 21.464844 125.507812 20.945312 L 125.507812 10.382812 C 125.507812 6.078125 122.007812 2.574219 117.703125 2.574219 C 113.410156 2.574219 109.921875 6.078125 109.921875 10.382812 L 109.921875 20.945312 C 109.921875 21.464844 109.5 21.886719 108.980469 21.886719 C 108.457031 21.886719 108.035156 21.464844 108.035156 20.945312 L 108.035156 10.382812 C 108.035156 5.039062 112.367188 0.691406 117.703125 0.691406 C 123.042969 0.691406 127.390625 5.039062 127.390625 10.382812 L 127.390625 20.945312 C 127.398438 21.464844 126.976562 21.886719 126.453125 21.886719 Z M 126.453125 21.886719 " fill-opacity="1" fill-rule="nonzero"/></g><g clip-path="url(#ff1d22dd87)"><path fill="#088178" d="M 128.589844 13.742188 L 115.039062 13.742188 L 115.039062 53.539062 L 128.589844 53.539062 C 131.683594 53.539062 134.21875 51.003906 134.21875 47.882812 L 134.21875 19.371094 C 134.21875 16.28125 131.683594 13.742188 128.589844 13.742188 Z M 128.589844 13.742188 " fill-opacity="1" fill-rule="evenodd"/></g><g clip-path="url(#814117cd25)"><path fill="#465b52" d="M 90.765625 13.742188 L 118.695312 13.742188 C 121.816406 13.742188 124.355469 16.28125 124.355469 19.371094 L 124.355469 47.890625 C 124.355469 51.011719 121.816406 53.546875 118.695312 53.546875 L 90.765625 53.546875 C 87.640625 53.546875 85.105469 51.011719 85.105469 47.890625 L 85.105469 19.371094 C 85.105469 16.28125 87.640625 13.742188 90.765625 13.742188 Z M 90.765625 13.742188 " fill-opacity="1" fill-rule="evenodd"/></g><path fill="#1c98ed" d="M 104.714844 44.097656 C 110.480469 44.097656 115.199219 39.40625 115.199219 33.640625 C 115.199219 27.878906 110.480469 23.183594 104.714844 23.183594 C 98.953125 23.183594 94.257812 27.878906 94.257812 33.640625 C 94.257812 39.40625 98.953125 44.097656 104.714844 44.097656 Z M 104.714844 44.097656 " fill-opacity="1" fill-rule="evenodd"/><path fill="#465b52" d="M 108.824219 35.109375 L 106.046875 37.882812 C 105.328125 38.601562 104.125 38.601562 103.375 37.882812 L 100.601562 35.109375 C 99.480469 33.957031 99.480469 32.121094 100.601562 31 C 101.75 29.851562 103.589844 29.851562 104.707031 31 C 105.855469 29.851562 107.695312 29.851562 108.816406 31 C 109.972656 32.121094 109.972656 33.964844 108.824219 35.109375 Z M 108.824219 35.109375 " fill-opacity="1" fill-rule="evenodd"/><g clip-path="url(#aa81558d23)"><path fill="#1c98ed" d="M 113.460938 21.886719 C 112.9375 21.886719 112.515625 21.464844 112.515625 20.945312 L 112.515625 10.382812 C 112.515625 6.078125 109.015625 2.574219 104.707031 2.574219 C 100.417969 2.574219 96.929688 6.078125 96.929688 10.382812 L 96.929688 20.945312 C 96.929688 21.464844 96.507812 21.886719 95.984375 21.886719 C 95.464844 21.886719 95.042969 21.464844 95.042969 20.945312 L 95.042969 10.382812 C 95.042969 5.039062 99.375 0.691406 104.707031 0.691406 C 110.050781 0.691406 114.398438 5.039062 114.398438 10.382812 L 114.398438 20.945312 C 114.40625 21.464844 113.980469 21.886719 113.460938 21.886719 Z M 113.460938 21.886719 " fill-opacity="1" fill-rule="nonzero"/></g><g fill="#000000" fill-opacity="1"><g transform="translate(63.072685, 79.375284)"><g><path d="M 11.171875 0.09375 C 10.597656 0.09375 10.03125 -0.0625 9.46875 -0.375 C 8.90625 -0.695312 8.457031 -1.320312 8.125 -2.25 L 7.671875 -3.40625 L 2.640625 -3.40625 L 1.203125 0 L 0.390625 0 L 5.421875 -11.859375 L 5.96875 -11.859375 L 9.921875 -2.25 C 10.222656 -1.550781 10.503906 -1.070312 10.765625 -0.8125 C 11.023438 -0.5625 11.398438 -0.410156 11.890625 -0.359375 L 11.890625 0 C 11.679688 0.0625 11.441406 0.09375 11.171875 0.09375 Z M 7.3125 -4.125 L 5.15625 -9.34375 L 2.90625 -4.125 Z M 7.3125 -4.125 "/></g></g></g><g fill="#000000" fill-opacity="1"><g transform="translate(74.406638, 79.375284)"><g><path d="M 2.15625 -9.515625 C 1.84375 -9.960938 1.578125 -10.3125 1.359375 -10.5625 C 1.148438 -10.8125 0.894531 -11.023438 0.59375 -11.203125 C 0.300781 -11.378906 -0.046875 -11.476562 -0.453125 -11.5 L -0.453125 -11.859375 L 1.171875 -11.859375 C 1.765625 -11.859375 2.265625 -11.679688 2.671875 -11.328125 C 3.078125 -10.972656 3.472656 -10.488281 3.859375 -9.875 L 6.46875 -5.84375 L 10.21875 -11.859375 L 11.03125 -11.859375 L 6.828125 -5.03125 L 6.828125 0 L 5.203125 0 L 5.203125 -4.90625 Z M 2.15625 -9.515625 "/></g></g></g><g fill="#000000" fill-opacity="1"><g transform="translate(85.614857, 79.375284)"><g><path d="M 1.90625 -9.703125 C 1.90625 -10.316406 1.820312 -10.769531 1.65625 -11.0625 C 1.488281 -11.351562 1.148438 -11.5 0.640625 -11.5 L 0.28125 -11.5 L 0.28125 -11.859375 L 1.90625 -11.859375 C 2.34375 -11.859375 2.671875 -11.800781 2.890625 -11.6875 C 3.117188 -11.570312 3.28125 -11.363281 3.375 -11.0625 C 3.46875 -10.769531 3.515625 -10.316406 3.515625 -9.703125 L 3.515625 -6.46875 L 8.90625 -6.46875 L 8.90625 -11.859375 L 10.53125 -11.859375 L 10.53125 -2.15625 C 10.53125 -1.539062 10.613281 -1.085938 10.78125 -0.796875 C 10.945312 -0.503906 11.28125 -0.359375 11.78125 -0.359375 L 12.140625 -0.359375 L 12.140625 0 L 10.53125 0 C 10.082031 0 9.75 -0.0546875 9.53125 -0.171875 C 9.3125 -0.285156 9.148438 -0.488281 9.046875 -0.78125 C 8.953125 -1.082031 8.90625 -1.539062 8.90625 -2.15625 L 8.90625 -5.75 L 3.515625 -5.75 L 3.515625 0 L 1.90625 0 Z M 1.90625 -9.703125 "/></g></g></g><g fill="#000000" fill-opacity="1"><g transform="translate(97.990598, 79.375284)"><g/></g></g><g fill="#000000" fill-opacity="1"><g transform="translate(102.40922, 79.375284)"><g><path d="M 5.0625 0.3125 C 4.40625 0.3125 3.757812 0.21875 3.125 0.03125 C 2.488281 -0.144531 1.96875 -0.398438 1.5625 -0.734375 C 1.164062 -1.066406 0.96875 -1.453125 0.96875 -1.890625 L 0.96875 -3.8125 L 1.296875 -3.8125 C 1.492188 -2.613281 1.882812 -1.742188 2.46875 -1.203125 C 3.0625 -0.671875 3.875 -0.40625 4.90625 -0.40625 C 5.550781 -0.40625 6.101562 -0.566406 6.5625 -0.890625 C 7.03125 -1.222656 7.265625 -1.675781 7.265625 -2.25 C 7.265625 -2.75 7.109375 -3.179688 6.796875 -3.546875 C 6.484375 -3.921875 5.976562 -4.3125 5.28125 -4.71875 L 3.078125 -6.03125 C 2.304688 -6.488281 1.757812 -6.953125 1.4375 -7.421875 C 1.125 -7.890625 0.96875 -8.457031 0.96875 -9.125 C 0.96875 -10.050781 1.285156 -10.789062 1.921875 -11.34375 C 2.566406 -11.90625 3.410156 -12.1875 4.453125 -12.1875 C 5.066406 -12.1875 5.671875 -12.097656 6.265625 -11.921875 C 6.867188 -11.742188 7.363281 -11.488281 7.75 -11.15625 C 8.144531 -10.832031 8.34375 -10.457031 8.34375 -10.03125 L 8.34375 -8.109375 L 8.015625 -8.109375 C 7.804688 -9.304688 7.414062 -10.164062 6.84375 -10.6875 C 6.28125 -11.207031 5.484375 -11.46875 4.453125 -11.46875 C 3.898438 -11.46875 3.414062 -11.296875 3 -10.953125 C 2.582031 -10.617188 2.375 -10.1875 2.375 -9.65625 C 2.375 -9.15625 2.523438 -8.742188 2.828125 -8.421875 C 3.128906 -8.097656 3.640625 -7.722656 4.359375 -7.296875 L 6.578125 -5.984375 C 7.390625 -5.492188 7.960938 -5.035156 8.296875 -4.609375 C 8.628906 -4.191406 8.796875 -3.660156 8.796875 -3.015625 C 8.796875 -2.015625 8.460938 -1.207031 7.796875 -0.59375 C 7.128906 0.0078125 6.21875 0.3125 5.0625 0.3125 Z M 5.0625 0.3125 "/></g></g></g><g fill="#000000" fill-opacity="1"><g transform="translate(111.911059, 79.375284)"><g><path d="M 2.984375 -11.140625 C 1.484375 -11.140625 0.734375 -10.453125 0.734375 -9.078125 L 0.375 -9.078125 L 0.375 -10.421875 C 0.375 -11.378906 0.882812 -11.859375 1.90625 -11.859375 L 10.265625 -11.859375 L 10.265625 -11.140625 L 6.21875 -11.140625 L 6.21875 0 L 4.59375 0 L 4.59375 -11.140625 Z M 2.984375 -11.140625 "/></g></g></g><g fill="#000000" fill-opacity="1"><g transform="translate(122.310997, 79.375284)"><g><path d="M 6.390625 0.359375 C 5.273438 0.359375 4.296875 0.0820312 3.453125 -0.46875 C 2.609375 -1.019531 1.957031 -1.773438 1.5 -2.734375 C 1.050781 -3.691406 0.828125 -4.753906 0.828125 -5.921875 C 0.828125 -7.097656 1.050781 -8.164062 1.5 -9.125 C 1.957031 -10.082031 2.609375 -10.835938 3.453125 -11.390625 C 4.296875 -11.941406 5.273438 -12.21875 6.390625 -12.21875 C 7.503906 -12.21875 8.484375 -11.941406 9.328125 -11.390625 C 10.171875 -10.835938 10.820312 -10.082031 11.28125 -9.125 C 11.738281 -8.164062 11.96875 -7.097656 11.96875 -5.921875 C 11.96875 -4.753906 11.738281 -3.691406 11.28125 -2.734375 C 10.820312 -1.773438 10.171875 -1.019531 9.328125 -0.46875 C 8.484375 0.0820312 7.503906 0.359375 6.390625 0.359375 Z M 6.390625 -0.359375 C 7.171875 -0.359375 7.84375 -0.582031 8.40625 -1.03125 C 8.976562 -1.488281 9.414062 -2.132812 9.71875 -2.96875 C 10.019531 -3.800781 10.171875 -4.785156 10.171875 -5.921875 C 10.171875 -7.066406 10.019531 -8.054688 9.71875 -8.890625 C 9.414062 -9.722656 8.976562 -10.363281 8.40625 -10.8125 C 7.84375 -11.269531 7.171875 -11.5 6.390625 -11.5 C 5.617188 -11.5 4.945312 -11.269531 4.375 -10.8125 C 3.800781 -10.363281 3.363281 -9.722656 3.0625 -8.890625 C 2.769531 -8.054688 2.625 -7.066406 2.625 -5.921875 C 2.625 -4.785156 2.769531 -3.800781 3.0625 -2.96875 C 3.363281 -2.132812 3.800781 -1.488281 4.375 -1.03125 C 4.945312 -0.582031 5.617188 -0.359375 6.390625 -0.359375 Z M 6.390625 -0.359375 "/></g></g></g><g fill="#000000" fill-opacity="1"><g transform="translate(135.028021, 79.375284)"><g><path d="M 9.8125 0.171875 C 9.175781 0.171875 8.617188 -0.015625 8.140625 -0.390625 C 7.671875 -0.765625 7.148438 -1.441406 6.578125 -2.421875 L 4.78125 -5.484375 L 3.515625 -5.484375 L 3.515625 0 L 1.90625 0 L 1.90625 -9.703125 C 1.90625 -10.316406 1.820312 -10.769531 1.65625 -11.0625 C 1.488281 -11.351562 1.148438 -11.5 0.640625 -11.5 L 0.28125 -11.5 L 0.28125 -11.859375 L 4.953125 -11.859375 C 6.097656 -11.859375 7.132812 -11.632812 8.0625 -11.1875 C 8.988281 -10.738281 9.453125 -9.882812 9.453125 -8.625 C 9.453125 -7.03125 8.492188 -6.007812 6.578125 -5.5625 L 8.46875 -2.421875 C 8.90625 -1.679688 9.300781 -1.164062 9.65625 -0.875 C 10.007812 -0.582031 10.421875 -0.410156 10.890625 -0.359375 L 10.890625 0 C 10.785156 0.0507812 10.632812 0.09375 10.4375 0.125 C 10.238281 0.15625 10.03125 0.171875 9.8125 0.171875 Z M 4.875 -6.109375 C 5.238281 -6.109375 5.640625 -6.195312 6.078125 -6.375 C 6.515625 -6.550781 6.882812 -6.832031 7.1875 -7.21875 C 7.5 -7.601562 7.65625 -8.070312 7.65625 -8.625 C 7.65625 -9.207031 7.5 -9.691406 7.1875 -10.078125 C 6.882812 -10.472656 6.515625 -10.765625 6.078125 -10.953125 C 5.640625 -11.140625 5.238281 -11.234375 4.875 -11.234375 C 4.445312 -11.234375 3.992188 -11.171875 3.515625 -11.046875 L 3.515625 -6.28125 C 3.992188 -6.164062 4.445312 -6.109375 4.875 -6.109375 Z M 4.875 -6.109375 "/></g></g></g><g fill="#000000" fill-opacity="1"><g transform="translate(145.643494, 79.375284)"><g><path d="M 1.90625 -9.703125 C 1.90625 -10.316406 1.820312 -10.769531 1.65625 -11.0625 C 1.488281 -11.351562 1.148438 -11.5 0.640625 -11.5 L 0.28125 -11.5 L 0.28125 -11.859375 L 7.9375 -11.859375 C 8.957031 -11.859375 9.46875 -11.378906 9.46875 -10.421875 L 9.46875 -9.078125 L 9.109375 -9.078125 C 9.109375 -10.453125 8.359375 -11.140625 6.859375 -11.140625 L 3.515625 -11.140625 L 3.515625 -6.46875 L 8.375 -6.46875 L 8.375 -5.75 L 3.515625 -5.75 L 3.515625 -0.71875 L 6.671875 -0.71875 C 7.492188 -0.71875 8.140625 -0.863281 8.609375 -1.15625 C 9.078125 -1.457031 9.445312 -1.96875 9.71875 -2.6875 L 10.078125 -2.609375 L 9.453125 -0.890625 C 9.234375 -0.296875 8.785156 0 8.109375 0 L 1.90625 0 Z M 1.90625 -9.703125 "/></g></g></g><g fill="#000000" fill-opacity="1"><g transform="translate(63.562243, 92.441375)"><g><path d="M 0.96875 -4.921875 C 0.96875 -5.234375 0.925781 -5.460938 0.84375 -5.609375 C 0.757812 -5.765625 0.585938 -5.84375 0.328125 -5.84375 L 0.140625 -5.84375 L 0.140625 -6.015625 L 2.515625 -6.015625 C 3.179688 -6.015625 3.757812 -5.90625 4.25 -5.6875 C 4.738281 -5.46875 4.984375 -5.046875 4.984375 -4.421875 C 4.984375 -4.140625 4.882812 -3.878906 4.6875 -3.640625 C 4.488281 -3.410156 4.191406 -3.234375 3.796875 -3.109375 C 4.359375 -3.015625 4.75 -2.847656 4.96875 -2.609375 C 5.1875 -2.367188 5.296875 -2.046875 5.296875 -1.640625 C 5.296875 -1.023438 5.050781 -0.597656 4.5625 -0.359375 C 4.082031 -0.117188 3.492188 0 2.796875 0 L 0.96875 0 Z M 2.65625 -3.234375 C 2.90625 -3.234375 3.140625 -3.28125 3.359375 -3.375 C 3.585938 -3.46875 3.769531 -3.609375 3.90625 -3.796875 C 4.039062 -3.984375 4.109375 -4.207031 4.109375 -4.46875 C 4.109375 -4.738281 4.023438 -4.96875 3.859375 -5.15625 C 3.703125 -5.34375 3.492188 -5.476562 3.234375 -5.5625 C 2.984375 -5.65625 2.726562 -5.703125 2.46875 -5.703125 C 2.257812 -5.703125 2.03125 -5.671875 1.78125 -5.609375 L 1.78125 -3.234375 Z M 2.65625 -0.3125 C 3.207031 -0.3125 3.632812 -0.421875 3.9375 -0.640625 C 4.238281 -0.859375 4.390625 -1.175781 4.390625 -1.59375 C 4.390625 -2.007812 4.238281 -2.328125 3.9375 -2.546875 C 3.644531 -2.765625 3.21875 -2.875 2.65625 -2.875 L 1.78125 -2.875 L 1.78125 -0.453125 C 2.070312 -0.359375 2.363281 -0.3125 2.65625 -0.3125 Z M 2.65625 -0.3125 "/></g></g></g><g fill="#000000" fill-opacity="1"><g transform="translate(70.374657, 92.441375)"><g><path d="M 2.328125 0.09375 C 1.910156 0.09375 1.554688 -0.00390625 1.265625 -0.203125 C 0.984375 -0.398438 0.769531 -0.664062 0.625 -1 C 0.476562 -1.34375 0.40625 -1.722656 0.40625 -2.140625 C 0.40625 -2.554688 0.476562 -2.929688 0.625 -3.265625 C 0.769531 -3.609375 0.976562 -3.878906 1.25 -4.078125 C 1.53125 -4.273438 1.859375 -4.375 2.234375 -4.375 C 2.847656 -4.375 3.304688 -4.203125 3.609375 -3.859375 C 3.910156 -3.515625 4.0625 -3.019531 4.0625 -2.375 L 4.046875 -2 L 1.28125 -2 C 1.28125 -1.488281 1.390625 -1.070312 1.609375 -0.75 C 1.828125 -0.4375 2.128906 -0.28125 2.515625 -0.28125 C 2.796875 -0.28125 3.035156 -0.335938 3.234375 -0.453125 C 3.429688 -0.578125 3.613281 -0.757812 3.78125 -1 L 3.96875 -0.859375 C 3.769531 -0.523438 3.535156 -0.28125 3.265625 -0.125 C 2.992188 0.0195312 2.679688 0.09375 2.328125 0.09375 Z M 3.1875 -2.375 C 3.1875 -2.90625 3.109375 -3.3125 2.953125 -3.59375 C 2.796875 -3.875 2.554688 -4.015625 2.234375 -4.015625 C 2.054688 -4.015625 1.894531 -3.941406 1.75 -3.796875 C 1.601562 -3.660156 1.488281 -3.46875 1.40625 -3.21875 C 1.320312 -2.96875 1.28125 -2.6875 1.28125 -2.375 Z M 3.1875 -2.375 "/></g></g></g><g fill="#000000" fill-opacity="1"><g transform="translate(75.965044, 92.441375)"><g><path d="M 2.09375 0.09375 C 1.394531 0.09375 0.921875 -0.03125 0.671875 -0.28125 C 0.566406 -0.375 0.503906 -0.488281 0.484375 -0.625 C 0.460938 -0.757812 0.453125 -0.960938 0.453125 -1.234375 L 0.625 -1.234375 C 0.6875 -0.929688 0.820312 -0.695312 1.03125 -0.53125 C 1.238281 -0.363281 1.53125 -0.28125 1.90625 -0.28125 C 2.238281 -0.28125 2.488281 -0.335938 2.65625 -0.453125 C 2.820312 -0.566406 2.90625 -0.71875 2.90625 -0.90625 C 2.90625 -1.082031 2.835938 -1.234375 2.703125 -1.359375 C 2.578125 -1.492188 2.375 -1.617188 2.09375 -1.734375 L 1.546875 -1.96875 C 1.179688 -2.113281 0.90625 -2.28125 0.71875 -2.46875 C 0.539062 -2.664062 0.453125 -2.90625 0.453125 -3.1875 C 0.453125 -3.5625 0.585938 -3.851562 0.859375 -4.0625 C 1.140625 -4.269531 1.503906 -4.375 1.953125 -4.375 C 2.617188 -4.375 3.078125 -4.253906 3.328125 -4.015625 C 3.429688 -3.910156 3.492188 -3.796875 3.515625 -3.671875 C 3.535156 -3.546875 3.546875 -3.34375 3.546875 -3.0625 L 3.359375 -3.0625 C 3.316406 -3.363281 3.191406 -3.597656 2.984375 -3.765625 C 2.773438 -3.929688 2.492188 -4.015625 2.140625 -4.015625 C 1.847656 -4.015625 1.617188 -3.953125 1.453125 -3.828125 C 1.296875 -3.710938 1.21875 -3.5625 1.21875 -3.375 C 1.21875 -3.0625 1.460938 -2.800781 1.953125 -2.59375 L 2.5 -2.375 C 2.914062 -2.195312 3.21875 -2.015625 3.40625 -1.828125 C 3.59375 -1.640625 3.6875 -1.394531 3.6875 -1.09375 C 3.6875 -0.71875 3.535156 -0.425781 3.234375 -0.21875 C 2.941406 -0.0078125 2.5625 0.09375 2.09375 0.09375 Z M 2.09375 0.09375 "/></g></g></g><g fill="#000000" fill-opacity="1"><g transform="translate(81.172403, 92.441375)"><g><path d="M 1.921875 0.09375 C 1.585938 0.09375 1.320312 -0.00390625 1.125 -0.203125 C 0.925781 -0.398438 0.828125 -0.695312 0.828125 -1.09375 L 0.828125 -3.921875 L 0.1875 -3.921875 L 0.1875 -4.28125 L 0.828125 -4.28125 L 0.828125 -5.109375 L 1.28125 -5.65625 L 1.65625 -5.65625 L 1.65625 -4.28125 L 2.75 -4.28125 L 2.75 -3.921875 L 1.65625 -3.921875 L 1.65625 -1.09375 C 1.65625 -0.550781 1.867188 -0.28125 2.296875 -0.28125 C 2.441406 -0.28125 2.5625 -0.289062 2.65625 -0.3125 C 2.757812 -0.34375 2.863281 -0.390625 2.96875 -0.453125 L 3.0625 -0.28125 C 2.925781 -0.175781 2.769531 -0.0859375 2.59375 -0.015625 C 2.425781 0.0546875 2.203125 0.09375 1.921875 0.09375 Z M 1.921875 0.09375 "/></g></g></g><g fill="#000000" fill-opacity="1"><g transform="translate(85.394848, 92.441375)"><g/></g></g><g fill="#000000" fill-opacity="1"><g transform="translate(88.814758, 92.441375)"><g><path d="M 0.96875 -4.921875 C 0.96875 -5.234375 0.925781 -5.460938 0.84375 -5.609375 C 0.757812 -5.765625 0.585938 -5.84375 0.328125 -5.84375 L 0.140625 -5.84375 L 0.140625 -6.015625 L 3.78125 -6.015625 C 4.300781 -6.015625 4.5625 -5.773438 4.5625 -5.296875 L 4.5625 -4.609375 L 4.375 -4.609375 C 4.375 -5.304688 3.992188 -5.65625 3.234375 -5.65625 L 1.78125 -5.65625 L 1.78125 -3.234375 L 3.84375 -3.234375 L 3.84375 -2.875 L 1.78125 -2.875 L 1.78125 0 L 0.96875 0 Z M 0.96875 -4.921875 "/></g></g></g><g fill="#000000" fill-opacity="1"><g transform="translate(94.760809, 92.441375)"><g><path d="M 1.671875 0.09375 C 1.484375 0.09375 1.285156 0.0507812 1.078125 -0.03125 C 0.878906 -0.113281 0.707031 -0.25 0.5625 -0.4375 C 0.425781 -0.625 0.359375 -0.875 0.359375 -1.1875 C 0.359375 -1.644531 0.570312 -1.972656 1 -2.171875 C 1.425781 -2.367188 1.988281 -2.46875 2.6875 -2.46875 L 2.953125 -2.46875 C 2.953125 -3.0625 2.867188 -3.46875 2.703125 -3.6875 C 2.546875 -3.90625 2.3125 -4.015625 2 -4.015625 C 1.726562 -4.015625 1.507812 -3.957031 1.34375 -3.84375 C 1.175781 -3.726562 1.0625 -3.523438 1 -3.234375 L 0.578125 -3.234375 C 0.578125 -3.441406 0.585938 -3.601562 0.609375 -3.71875 C 0.640625 -3.84375 0.707031 -3.957031 0.8125 -4.0625 C 0.914062 -4.164062 1.09375 -4.242188 1.34375 -4.296875 C 1.601562 -4.347656 1.882812 -4.375 2.1875 -4.375 C 2.675781 -4.375 3.0625 -4.242188 3.34375 -3.984375 C 3.632812 -3.722656 3.78125 -3.21875 3.78125 -2.46875 L 3.78125 0 L 3.328125 0 L 3 -0.40625 L 2.953125 -0.40625 C 2.847656 -0.269531 2.6875 -0.148438 2.46875 -0.046875 C 2.257812 0.046875 1.992188 0.09375 1.671875 0.09375 Z M 2.09375 -0.3125 C 2.289062 -0.3125 2.457031 -0.359375 2.59375 -0.453125 C 2.726562 -0.554688 2.847656 -0.691406 2.953125 -0.859375 L 2.953125 -2.09375 L 2.6875 -2.09375 C 2.226562 -2.09375 1.867188 -2.007812 1.609375 -1.84375 C 1.347656 -1.675781 1.21875 -1.457031 1.21875 -1.1875 C 1.21875 -0.90625 1.300781 -0.6875 1.46875 -0.53125 C 1.632812 -0.382812 1.84375 -0.3125 2.09375 -0.3125 Z M 2.09375 -0.3125 "/></g></g></g><g fill="#000000" fill-opacity="1"><g transform="translate(100.287359, 92.441375)"><g><path d="M 2.09375 0.09375 C 1.394531 0.09375 0.921875 -0.03125 0.671875 -0.28125 C 0.566406 -0.375 0.503906 -0.488281 0.484375 -0.625 C 0.460938 -0.757812 0.453125 -0.960938 0.453125 -1.234375 L 0.625 -1.234375 C 0.6875 -0.929688 0.820312 -0.695312 1.03125 -0.53125 C 1.238281 -0.363281 1.53125 -0.28125 1.90625 -0.28125 C 2.238281 -0.28125 2.488281 -0.335938 2.65625 -0.453125 C 2.820312 -0.566406 2.90625 -0.71875 2.90625 -0.90625 C 2.90625 -1.082031 2.835938 -1.234375 2.703125 -1.359375 C 2.578125 -1.492188 2.375 -1.617188 2.09375 -1.734375 L 1.546875 -1.96875 C 1.179688 -2.113281 0.90625 -2.28125 0.71875 -2.46875 C 0.539062 -2.664062 0.453125 -2.90625 0.453125 -3.1875 C 0.453125 -3.5625 0.585938 -3.851562 0.859375 -4.0625 C 1.140625 -4.269531 1.503906 -4.375 1.953125 -4.375 C 2.617188 -4.375 3.078125 -4.253906 3.328125 -4.015625 C 3.429688 -3.910156 3.492188 -3.796875 3.515625 -3.671875 C 3.535156 -3.546875 3.546875 -3.34375 3.546875 -3.0625 L 3.359375 -3.0625 C 3.316406 -3.363281 3.191406 -3.597656 2.984375 -3.765625 C 2.773438 -3.929688 2.492188 -4.015625 2.140625 -4.015625 C 1.847656 -4.015625 1.617188 -3.953125 1.453125 -3.828125 C 1.296875 -3.710938 1.21875 -3.5625 1.21875 -3.375 C 1.21875 -3.0625 1.460938 -2.800781 1.953125 -2.59375 L 2.5 -2.375 C 2.914062 -2.195312 3.21875 -2.015625 3.40625 -1.828125 C 3.59375 -1.640625 3.6875 -1.394531 3.6875 -1.09375 C 3.6875 -0.71875 3.535156 -0.425781 3.234375 -0.21875 C 2.941406 -0.0078125 2.5625 0.09375 2.09375 0.09375 Z M 2.09375 0.09375 "/></g></g></g><g fill="#000000" fill-opacity="1"><g transform="translate(105.49472, 92.441375)"><g><path d="M 0.65625 -4.921875 C 0.65625 -5.234375 0.613281 -5.460938 0.53125 -5.609375 C 0.445312 -5.765625 0.273438 -5.84375 0.015625 -5.84375 L -0.171875 -5.84375 L -0.171875 -6.015625 L 0.65625 -6.015625 C 0.882812 -6.015625 1.050781 -5.984375 1.15625 -5.921875 C 1.269531 -5.867188 1.351562 -5.765625 1.40625 -5.609375 C 1.457031 -5.460938 1.484375 -5.234375 1.484375 -4.921875 L 1.484375 -3.921875 C 1.609375 -4.046875 1.769531 -4.148438 1.96875 -4.234375 C 2.175781 -4.328125 2.410156 -4.375 2.671875 -4.375 C 3.117188 -4.375 3.488281 -4.253906 3.78125 -4.015625 C 4.070312 -3.773438 4.21875 -3.347656 4.21875 -2.734375 L 4.21875 0 L 3.390625 0 L 3.390625 -2.734375 C 3.390625 -3.160156 3.289062 -3.472656 3.09375 -3.671875 C 2.90625 -3.867188 2.671875 -3.96875 2.390625 -3.96875 C 2.066406 -3.96875 1.765625 -3.804688 1.484375 -3.484375 L 1.484375 0 L 0.65625 0 Z M 0.65625 -4.921875 "/></g></g></g><g fill="#000000" fill-opacity="1"><g transform="translate(111.459011, 92.441375)"><g><path d="M 1.140625 -4.84375 C 1.003906 -4.84375 0.882812 -4.898438 0.78125 -5.015625 C 0.675781 -5.128906 0.625 -5.265625 0.625 -5.421875 C 0.625 -5.546875 0.660156 -5.644531 0.734375 -5.71875 C 0.816406 -5.789062 0.921875 -5.828125 1.046875 -5.828125 C 1.191406 -5.828125 1.3125 -5.769531 1.40625 -5.65625 C 1.507812 -5.539062 1.5625 -5.40625 1.5625 -5.25 C 1.5625 -5.125 1.519531 -5.023438 1.4375 -4.953125 C 1.363281 -4.878906 1.265625 -4.84375 1.140625 -4.84375 Z M 0.796875 -3.1875 C 0.796875 -3.5 0.75 -3.726562 0.65625 -3.875 C 0.570312 -4.03125 0.40625 -4.109375 0.15625 -4.109375 L -0.03125 -4.109375 L -0.03125 -4.28125 L 0.796875 -4.28125 C 1.015625 -4.28125 1.179688 -4.25 1.296875 -4.1875 C 1.410156 -4.132812 1.488281 -4.03125 1.53125 -3.875 C 1.582031 -3.726562 1.609375 -3.5 1.609375 -3.1875 L 1.609375 0 L 0.796875 0 Z M 0.796875 -3.1875 "/></g></g></g><g fill="#000000" fill-opacity="1"><g transform="translate(114.842448, 92.441375)"><g><path d="M 2.421875 0.09375 C 2.003906 0.09375 1.644531 -0.00390625 1.34375 -0.203125 C 1.039062 -0.398438 0.804688 -0.671875 0.640625 -1.015625 C 0.484375 -1.359375 0.40625 -1.734375 0.40625 -2.140625 C 0.40625 -2.554688 0.484375 -2.929688 0.640625 -3.265625 C 0.804688 -3.609375 1.039062 -3.878906 1.34375 -4.078125 C 1.644531 -4.273438 2.003906 -4.375 2.421875 -4.375 C 2.828125 -4.375 3.179688 -4.273438 3.484375 -4.078125 C 3.796875 -3.878906 4.03125 -3.609375 4.1875 -3.265625 C 4.34375 -2.929688 4.421875 -2.554688 4.421875 -2.140625 C 4.421875 -1.734375 4.34375 -1.359375 4.1875 -1.015625 C 4.03125 -0.671875 3.796875 -0.398438 3.484375 -0.203125 C 3.179688 -0.00390625 2.828125 0.09375 2.421875 0.09375 Z M 2.421875 -0.28125 C 2.640625 -0.28125 2.835938 -0.359375 3.015625 -0.515625 C 3.191406 -0.679688 3.328125 -0.90625 3.421875 -1.1875 C 3.515625 -1.476562 3.5625 -1.796875 3.5625 -2.140625 C 3.5625 -2.492188 3.515625 -2.8125 3.421875 -3.09375 C 3.328125 -3.375 3.191406 -3.597656 3.015625 -3.765625 C 2.835938 -3.929688 2.640625 -4.015625 2.421875 -4.015625 C 2.191406 -4.015625 1.988281 -3.929688 1.8125 -3.765625 C 1.644531 -3.597656 1.515625 -3.375 1.421875 -3.09375 C 1.328125 -2.8125 1.28125 -2.492188 1.28125 -2.140625 C 1.28125 -1.796875 1.328125 -1.476562 1.421875 -1.1875 C 1.515625 -0.90625 1.644531 -0.679688 1.8125 -0.515625 C 1.988281 -0.359375 2.191406 -0.28125 2.421875 -0.28125 Z M 2.421875 -0.28125 "/></g></g></g><g fill="#000000" fill-opacity="1"><g transform="translate(120.815863, 92.441375)"><g><path d="M 0.796875 -3.1875 C 0.796875 -3.5 0.75 -3.726562 0.65625 -3.875 C 0.570312 -4.03125 0.40625 -4.109375 0.15625 -4.109375 L -0.03125 -4.109375 L -0.03125 -4.28125 L 0.796875 -4.28125 C 1.015625 -4.28125 1.179688 -4.25 1.296875 -4.1875 C 1.421875 -4.132812 1.507812 -4.046875 1.5625 -3.921875 L 1.609375 -3.921875 C 1.742188 -4.046875 1.910156 -4.148438 2.109375 -4.234375 C 2.316406 -4.328125 2.546875 -4.375 2.796875 -4.375 C 3.253906 -4.375 3.628906 -4.253906 3.921875 -4.015625 C 4.210938 -3.773438 4.359375 -3.347656 4.359375 -2.734375 L 4.359375 0 L 3.53125 0 L 3.53125 -2.734375 C 3.53125 -3.160156 3.429688 -3.472656 3.234375 -3.671875 C 3.046875 -3.867188 2.8125 -3.96875 2.53125 -3.96875 C 2.207031 -3.96875 1.898438 -3.804688 1.609375 -3.484375 L 1.609375 0 L 0.796875 0 Z M 0.796875 -3.1875 "/></g></g></g><g fill="#000000" fill-opacity="1"><g transform="translate(126.916949, 92.441375)"><g/></g></g><g fill="#000000" fill-opacity="1"><g transform="translate(130.336856, 92.441375)"><g><path d="M 2.578125 0.15625 C 2.242188 0.15625 1.914062 0.109375 1.59375 0.015625 C 1.269531 -0.078125 1.003906 -0.207031 0.796875 -0.375 C 0.597656 -0.539062 0.5 -0.734375 0.5 -0.953125 L 0.5 -1.9375 L 0.65625 -1.9375 C 0.757812 -1.320312 0.957031 -0.878906 1.25 -0.609375 C 1.550781 -0.335938 1.960938 -0.203125 2.484375 -0.203125 C 2.816406 -0.203125 3.097656 -0.285156 3.328125 -0.453125 C 3.566406 -0.617188 3.6875 -0.847656 3.6875 -1.140625 C 3.6875 -1.398438 3.609375 -1.625 3.453125 -1.8125 C 3.296875 -2 3.039062 -2.195312 2.6875 -2.40625 L 1.5625 -3.0625 C 1.164062 -3.289062 0.890625 -3.523438 0.734375 -3.765625 C 0.578125 -4.003906 0.5 -4.296875 0.5 -4.640625 C 0.5 -5.109375 0.660156 -5.484375 0.984375 -5.765625 C 1.304688 -6.046875 1.734375 -6.1875 2.265625 -6.1875 C 2.578125 -6.1875 2.882812 -6.140625 3.1875 -6.046875 C 3.488281 -5.960938 3.738281 -5.835938 3.9375 -5.671875 C 4.132812 -5.503906 4.234375 -5.3125 4.234375 -5.09375 L 4.234375 -4.109375 L 4.0625 -4.109375 C 3.96875 -4.722656 3.773438 -5.160156 3.484375 -5.421875 C 3.191406 -5.691406 2.785156 -5.828125 2.265625 -5.828125 C 1.984375 -5.828125 1.734375 -5.738281 1.515625 -5.5625 C 1.304688 -5.394531 1.203125 -5.175781 1.203125 -4.90625 C 1.203125 -4.65625 1.28125 -4.445312 1.4375 -4.28125 C 1.59375 -4.113281 1.851562 -3.921875 2.21875 -3.703125 L 3.34375 -3.03125 C 3.75 -2.789062 4.035156 -2.5625 4.203125 -2.34375 C 4.378906 -2.132812 4.46875 -1.863281 4.46875 -1.53125 C 4.46875 -1.019531 4.296875 -0.609375 3.953125 -0.296875 C 3.617188 0.00390625 3.160156 0.15625 2.578125 0.15625 Z M 2.578125 0.15625 "/></g></g></g><g fill="#000000" fill-opacity="1"><g transform="translate(136.337624, 92.441375)"><g><path d="M 1.921875 0.09375 C 1.585938 0.09375 1.320312 -0.00390625 1.125 -0.203125 C 0.925781 -0.398438 0.828125 -0.695312 0.828125 -1.09375 L 0.828125 -3.921875 L 0.1875 -3.921875 L 0.1875 -4.28125 L 0.828125 -4.28125 L 0.828125 -5.109375 L 1.28125 -5.65625 L 1.65625 -5.65625 L 1.65625 -4.28125 L 2.75 -4.28125 L 2.75 -3.921875 L 1.65625 -3.921875 L 1.65625 -1.09375 C 1.65625 -0.550781 1.867188 -0.28125 2.296875 -0.28125 C 2.441406 -0.28125 2.5625 -0.289062 2.65625 -0.3125 C 2.757812 -0.34375 2.863281 -0.390625 2.96875 -0.453125 L 3.0625 -0.28125 C 2.925781 -0.175781 2.769531 -0.0859375 2.59375 -0.015625 C 2.425781 0.0546875 2.203125 0.09375 1.921875 0.09375 Z M 1.921875 0.09375 "/></g></g></g><g fill="#000000" fill-opacity="1"><g transform="translate(140.560065, 92.441375)"><g><path d="M 2.421875 0.09375 C 2.003906 0.09375 1.644531 -0.00390625 1.34375 -0.203125 C 1.039062 -0.398438 0.804688 -0.671875 0.640625 -1.015625 C 0.484375 -1.359375 0.40625 -1.734375 0.40625 -2.140625 C 0.40625 -2.554688 0.484375 -2.929688 0.640625 -3.265625 C 0.804688 -3.609375 1.039062 -3.878906 1.34375 -4.078125 C 1.644531 -4.273438 2.003906 -4.375 2.421875 -4.375 C 2.828125 -4.375 3.179688 -4.273438 3.484375 -4.078125 C 3.796875 -3.878906 4.03125 -3.609375 4.1875 -3.265625 C 4.34375 -2.929688 4.421875 -2.554688 4.421875 -2.140625 C 4.421875 -1.734375 4.34375 -1.359375 4.1875 -1.015625 C 4.03125 -0.671875 3.796875 -0.398438 3.484375 -0.203125 C 3.179688 -0.00390625 2.828125 0.09375 2.421875 0.09375 Z M 2.421875 -0.28125 C 2.640625 -0.28125 2.835938 -0.359375 3.015625 -0.515625 C 3.191406 -0.679688 3.328125 -0.90625 3.421875 -1.1875 C 3.515625 -1.476562 3.5625 -1.796875 3.5625 -2.140625 C 3.5625 -2.492188 3.515625 -2.8125 3.421875 -3.09375 C 3.328125 -3.375 3.191406 -3.597656 3.015625 -3.765625 C 2.835938 -3.929688 2.640625 -4.015625 2.421875 -4.015625 C 2.191406 -4.015625 1.988281 -3.929688 1.8125 -3.765625 C 1.644531 -3.597656 1.515625 -3.375 1.421875 -3.09375 C 1.328125 -2.8125 1.28125 -2.492188 1.28125 -2.140625 C 1.28125 -1.796875 1.328125 -1.476562 1.421875 -1.1875 C 1.515625 -0.90625 1.644531 -0.679688 1.8125 -0.515625 C 1.988281 -0.359375 2.191406 -0.28125 2.421875 -0.28125 Z M 2.421875 -0.28125 "/></g></g></g><g fill="#000000" fill-opacity="1"><g transform="translate(146.533476, 92.441375)"><g><path d="M 0.734375 -3.1875 C 0.734375 -3.5 0.6875 -3.726562 0.59375 -3.875 C 0.507812 -4.03125 0.34375 -4.109375 0.09375 -4.109375 L 0 -4.109375 L 0 -4.28125 L 0.734375 -4.28125 C 0.960938 -4.28125 1.132812 -4.25 1.25 -4.1875 C 1.375 -4.125 1.457031 -4.019531 1.5 -3.875 L 1.546875 -3.875 C 1.660156 -4.019531 1.804688 -4.140625 1.984375 -4.234375 C 2.171875 -4.328125 2.390625 -4.375 2.640625 -4.375 C 2.890625 -4.375 3.070312 -4.332031 3.1875 -4.25 C 3.289062 -4.164062 3.398438 -4.023438 3.515625 -3.828125 L 3.140625 -3.5625 C 3.078125 -3.65625 2.984375 -3.722656 2.859375 -3.765625 C 2.734375 -3.804688 2.585938 -3.828125 2.421875 -3.828125 C 2.234375 -3.828125 2.0625 -3.785156 1.90625 -3.703125 C 1.757812 -3.628906 1.640625 -3.519531 1.546875 -3.375 L 1.546875 0 L 0.734375 0 Z M 0.734375 -3.1875 "/></g></g></g><g fill="#000000" fill-opacity="1"><g transform="translate(151.293969, 92.441375)"><g><path d="M 2.328125 0.09375 C 1.910156 0.09375 1.554688 -0.00390625 1.265625 -0.203125 C 0.984375 -0.398438 0.769531 -0.664062 0.625 -1 C 0.476562 -1.34375 0.40625 -1.722656 0.40625 -2.140625 C 0.40625 -2.554688 0.476562 -2.929688 0.625 -3.265625 C 0.769531 -3.609375 0.976562 -3.878906 1.25 -4.078125 C 1.53125 -4.273438 1.859375 -4.375 2.234375 -4.375 C 2.847656 -4.375 3.304688 -4.203125 3.609375 -3.859375 C 3.910156 -3.515625 4.0625 -3.019531 4.0625 -2.375 L 4.046875 -2 L 1.28125 -2 C 1.28125 -1.488281 1.390625 -1.070312 1.609375 -0.75 C 1.828125 -0.4375 2.128906 -0.28125 2.515625 -0.28125 C 2.796875 -0.28125 3.035156 -0.335938 3.234375 -0.453125 C 3.429688 -0.578125 3.613281 -0.757812 3.78125 -1 L 3.96875 -0.859375 C 3.769531 -0.523438 3.535156 -0.28125 3.265625 -0.125 C 2.992188 0.0195312 2.679688 0.09375 2.328125 0.09375 Z M 3.1875 -2.375 C 3.1875 -2.90625 3.109375 -3.3125 2.953125 -3.59375 C 2.796875 -3.875 2.554688 -4.015625 2.234375 -4.015625 C 2.054688 -4.015625 1.894531 -3.941406 1.75 -3.796875 C 1.601562 -3.660156 1.488281 -3.46875 1.40625 -3.21875 C 1.320312 -2.96875 1.28125 -2.6875 1.28125 -2.375 Z M 3.1875 -2.375 "/></g></g></g></svg>