<svg xmlns="http://www.w3.org/2000/svg" xmlns:xlink="http://www.w3.org/1999/xlink" width="500" zoomAndPan="magnify" viewBox="0 0 375 374.999991" height="500" preserveAspectRatio="xMidYMid meet" version="1.0"><defs><g/><clipPath id="0e082a36c2"><path d="M 185 115.761719 L 215 115.761719 L 215 149 L 185 149 Z M 185 115.761719 " clip-rule="nonzero"/></clipPath><clipPath id="107815555e"><path d="M 195 135 L 225 135 L 225 196.011719 L 195 196.011719 Z M 195 135 " clip-rule="nonzero"/></clipPath><clipPath id="7b62774178"><path d="M 150.136719 135 L 210 135 L 210 196.011719 L 150.136719 196.011719 Z M 150.136719 135 " clip-rule="nonzero"/></clipPath><clipPath id="5e5fba1beb"><path d="M 165 115.761719 L 195 115.761719 L 195 149 L 165 149 Z M 165 115.761719 " clip-rule="nonzero"/></clipPath></defs><g clip-path="url(#0e082a36c2)"><path fill="#465b52" d="M 213.039062 148.035156 C 212.246094 148.035156 211.605469 147.390625 211.605469 146.597656 L 211.605469 130.527344 C 211.605469 123.976562 206.277344 118.652344 199.726562 118.652344 C 193.199219 118.652344 187.890625 123.976562 187.890625 130.527344 L 187.890625 146.597656 C 187.890625 147.390625 187.25 148.035156 186.457031 148.035156 C 185.660156 148.035156 185.019531 147.390625 185.019531 146.597656 L 185.019531 130.527344 C 185.019531 122.402344 191.613281 115.789062 199.726562 115.789062 C 207.851562 115.789062 214.464844 122.402344 214.464844 130.527344 L 214.464844 146.597656 C 214.476562 147.390625 213.835938 148.035156 213.039062 148.035156 Z M 213.039062 148.035156 " fill-opacity="1" fill-rule="nonzero"/></g><g clip-path="url(#107815555e)"><path fill="#088178" d="M 216.289062 135.640625 L 195.675781 135.640625 L 195.675781 196.1875 L 216.289062 196.1875 C 220.996094 196.1875 224.855469 192.328125 224.855469 187.582031 L 224.855469 144.207031 C 224.855469 139.5 220.996094 135.640625 216.289062 135.640625 Z M 216.289062 135.640625 " fill-opacity="1" fill-rule="evenodd"/></g><g clip-path="url(#7b62774178)"><path fill="#465b52" d="M 158.742188 135.640625 L 201.238281 135.640625 C 205.988281 135.640625 209.847656 139.5 209.847656 144.207031 L 209.847656 187.589844 C 209.847656 192.339844 205.988281 196.199219 201.238281 196.199219 L 158.742188 196.199219 C 153.996094 196.199219 150.136719 192.339844 150.136719 187.589844 L 150.136719 144.207031 C 150.136719 139.5 153.996094 135.640625 158.742188 135.640625 Z M 158.742188 135.640625 " fill-opacity="1" fill-rule="evenodd"/></g><path fill="#1c98ed" d="M 179.96875 181.824219 C 188.738281 181.824219 195.921875 174.683594 195.921875 165.914062 C 195.921875 157.144531 188.738281 150.007812 179.96875 150.007812 C 171.199219 150.007812 164.0625 157.144531 164.0625 165.914062 C 164.0625 174.683594 171.199219 181.824219 179.96875 181.824219 Z M 179.96875 181.824219 " fill-opacity="1" fill-rule="evenodd"/><path fill="#465b52" d="M 186.21875 168.144531 L 181.996094 172.367188 C 180.902344 173.460938 179.070312 173.460938 177.933594 172.367188 L 173.710938 168.144531 C 172.003906 166.398438 172.003906 163.601562 173.710938 161.894531 C 175.457031 160.148438 178.253906 160.148438 179.957031 161.894531 C 181.707031 160.148438 184.503906 160.148438 186.207031 161.894531 C 187.964844 163.601562 187.964844 166.410156 186.21875 168.144531 Z M 186.21875 168.144531 " fill-opacity="1" fill-rule="evenodd"/><g clip-path="url(#5e5fba1beb)"><path fill="#1c98ed" d="M 193.273438 148.035156 C 192.480469 148.035156 191.835938 147.390625 191.835938 146.597656 L 191.835938 130.527344 C 191.835938 123.976562 186.507812 118.652344 179.957031 118.652344 C 173.429688 118.652344 168.125 123.976562 168.125 130.527344 L 168.125 146.597656 C 168.125 147.390625 167.480469 148.035156 166.6875 148.035156 C 165.894531 148.035156 165.25 147.390625 165.25 146.597656 L 165.25 130.527344 C 165.25 122.402344 171.84375 115.789062 179.957031 115.789062 C 188.085938 115.789062 194.699219 122.402344 194.699219 130.527344 L 194.699219 146.597656 C 194.710938 147.390625 194.066406 148.035156 193.273438 148.035156 Z M 193.273438 148.035156 " fill-opacity="1" fill-rule="nonzero"/></g><g fill="#000000" fill-opacity="1"><g transform="translate(116.613727, 235.494813)"><g><path d="M 17 0.140625 C 16.125 0.140625 15.257812 -0.0976562 14.40625 -0.578125 C 13.550781 -1.066406 12.867188 -2.015625 12.359375 -3.421875 L 11.671875 -5.1875 L 4.015625 -5.1875 L 1.828125 0 L 0.59375 0 L 8.25 -18.03125 L 9.078125 -18.03125 L 15.078125 -3.421875 C 15.535156 -2.359375 15.960938 -1.628906 16.359375 -1.234375 C 16.765625 -0.847656 17.34375 -0.617188 18.09375 -0.546875 L 18.09375 0 C 17.757812 0.09375 17.394531 0.140625 17 0.140625 Z M 11.125 -6.28125 L 7.84375 -14.203125 L 4.421875 -6.28125 Z M 11.125 -6.28125 "/></g></g></g><g fill="#000000" fill-opacity="1"><g transform="translate(133.857768, 235.494813)"><g><path d="M 3.28125 -14.484375 C 2.800781 -15.160156 2.394531 -15.6875 2.0625 -16.0625 C 1.738281 -16.445312 1.351562 -16.769531 0.90625 -17.03125 C 0.46875 -17.300781 -0.0625 -17.453125 -0.6875 -17.484375 L -0.6875 -18.03125 L 1.78125 -18.03125 C 2.6875 -18.03125 3.445312 -17.757812 4.0625 -17.21875 C 4.6875 -16.6875 5.289062 -15.957031 5.875 -15.03125 L 9.84375 -8.875 L 15.546875 -18.03125 L 16.78125 -18.03125 L 10.390625 -7.65625 L 10.390625 0 L 7.921875 0 L 7.921875 -7.453125 Z M 3.28125 -14.484375 "/></g></g></g><g fill="#000000" fill-opacity="1"><g transform="translate(150.910509, 235.494813)"><g><path d="M 2.890625 -14.75 C 2.890625 -15.6875 2.757812 -16.375 2.5 -16.8125 C 2.25 -17.257812 1.742188 -17.484375 0.984375 -17.484375 L 0.4375 -17.484375 L 0.4375 -18.03125 L 2.890625 -18.03125 C 3.566406 -18.03125 4.070312 -17.941406 4.40625 -17.765625 C 4.75 -17.597656 4.992188 -17.285156 5.140625 -16.828125 C 5.285156 -16.378906 5.359375 -15.6875 5.359375 -14.75 L 5.359375 -9.84375 L 13.5625 -9.84375 L 13.5625 -18.03125 L 16.015625 -18.03125 L 16.015625 -3.28125 C 16.015625 -2.351562 16.140625 -1.664062 16.390625 -1.21875 C 16.648438 -0.769531 17.160156 -0.546875 17.921875 -0.546875 L 18.46875 -0.546875 L 18.46875 0 L 16.015625 0 C 15.335938 0 14.828125 -0.0820312 14.484375 -0.25 C 14.148438 -0.425781 13.910156 -0.742188 13.765625 -1.203125 C 13.628906 -1.660156 13.5625 -2.351562 13.5625 -3.28125 L 13.5625 -8.75 L 5.359375 -8.75 L 5.359375 0 L 2.890625 0 Z M 2.890625 -14.75 "/></g></g></g><g fill="#000000" fill-opacity="1"><g transform="translate(169.739578, 235.494813)"><g/></g></g><g fill="#000000" fill-opacity="1"><g transform="translate(176.462289, 235.494813)"><g><path d="M 7.703125 0.46875 C 6.703125 0.46875 5.71875 0.328125 4.75 0.046875 C 3.789062 -0.222656 3.003906 -0.613281 2.390625 -1.125 C 1.773438 -1.632812 1.46875 -2.21875 1.46875 -2.875 L 1.46875 -5.796875 L 1.96875 -5.796875 C 2.28125 -3.972656 2.878906 -2.65625 3.765625 -1.84375 C 4.660156 -1.03125 5.890625 -0.625 7.453125 -0.625 C 8.441406 -0.625 9.285156 -0.867188 9.984375 -1.359375 C 10.691406 -1.859375 11.046875 -2.546875 11.046875 -3.421875 C 11.046875 -4.179688 10.804688 -4.84375 10.328125 -5.40625 C 9.859375 -5.976562 9.09375 -6.570312 8.03125 -7.1875 L 4.671875 -9.1875 C 3.503906 -9.875 2.675781 -10.570312 2.1875 -11.28125 C 1.707031 -12 1.46875 -12.863281 1.46875 -13.875 C 1.46875 -15.28125 1.957031 -16.40625 2.9375 -17.25 C 3.914062 -18.101562 5.195312 -18.53125 6.78125 -18.53125 C 7.707031 -18.53125 8.625 -18.394531 9.53125 -18.125 C 10.445312 -17.863281 11.203125 -17.484375 11.796875 -16.984375 C 12.390625 -16.484375 12.6875 -15.90625 12.6875 -15.25 L 12.6875 -12.328125 L 12.1875 -12.328125 C 11.875 -14.148438 11.285156 -15.457031 10.421875 -16.25 C 9.554688 -17.039062 8.34375 -17.4375 6.78125 -17.4375 C 5.9375 -17.4375 5.195312 -17.179688 4.5625 -16.671875 C 3.925781 -16.160156 3.609375 -15.492188 3.609375 -14.671875 C 3.609375 -13.929688 3.835938 -13.3125 4.296875 -12.8125 C 4.765625 -12.320312 5.546875 -11.75 6.640625 -11.09375 L 10 -9.09375 C 11.238281 -8.351562 12.113281 -7.660156 12.625 -7.015625 C 13.132812 -6.378906 13.390625 -5.570312 13.390625 -4.59375 C 13.390625 -3.0625 12.878906 -1.832031 11.859375 -0.90625 C 10.835938 0.0078125 9.453125 0.46875 7.703125 0.46875 Z M 7.703125 0.46875 "/></g></g></g><g fill="#000000" fill-opacity="1"><g transform="translate(190.91886, 235.494813)"><g><path d="M 4.53125 -16.9375 C 2.257812 -16.9375 1.125 -15.890625 1.125 -13.796875 L 0.578125 -13.796875 L 0.578125 -15.84375 C 0.578125 -17.300781 1.347656 -18.03125 2.890625 -18.03125 L 15.609375 -18.03125 L 15.609375 -16.9375 L 9.453125 -16.9375 L 9.453125 0 L 7 0 L 7 -16.9375 Z M 4.53125 -16.9375 "/></g></g></g><g fill="#000000" fill-opacity="1"><g transform="translate(206.741844, 235.494813)"><g><path d="M 9.734375 0.546875 C 8.035156 0.546875 6.539062 0.128906 5.25 -0.703125 C 3.96875 -1.546875 2.976562 -2.695312 2.28125 -4.15625 C 1.59375 -5.613281 1.25 -7.234375 1.25 -9.015625 C 1.25 -10.804688 1.59375 -12.425781 2.28125 -13.875 C 2.976562 -15.332031 3.96875 -16.476562 5.25 -17.3125 C 6.539062 -18.15625 8.035156 -18.578125 9.734375 -18.578125 C 11.421875 -18.578125 12.90625 -18.15625 14.1875 -17.3125 C 15.476562 -16.476562 16.46875 -15.332031 17.15625 -13.875 C 17.851562 -12.425781 18.203125 -10.804688 18.203125 -9.015625 C 18.203125 -7.234375 17.851562 -5.613281 17.15625 -4.15625 C 16.46875 -2.695312 15.476562 -1.546875 14.1875 -0.703125 C 12.90625 0.128906 11.421875 0.546875 9.734375 0.546875 Z M 9.734375 -0.546875 C 10.910156 -0.546875 11.929688 -0.890625 12.796875 -1.578125 C 13.660156 -2.273438 14.320312 -3.253906 14.78125 -4.515625 C 15.238281 -5.785156 15.46875 -7.285156 15.46875 -9.015625 C 15.46875 -10.742188 15.238281 -12.238281 14.78125 -13.5 C 14.320312 -14.769531 13.660156 -15.75 12.796875 -16.4375 C 11.929688 -17.132812 10.910156 -17.484375 9.734375 -17.484375 C 8.546875 -17.484375 7.519531 -17.132812 6.65625 -16.4375 C 5.789062 -15.75 5.128906 -14.769531 4.671875 -13.5 C 4.210938 -12.238281 3.984375 -10.742188 3.984375 -9.015625 C 3.984375 -7.285156 4.210938 -5.785156 4.671875 -4.515625 C 5.128906 -3.253906 5.789062 -2.273438 6.65625 -1.578125 C 7.519531 -0.890625 8.546875 -0.546875 9.734375 -0.546875 Z M 9.734375 -0.546875 "/></g></g></g><g fill="#000000" fill-opacity="1"><g transform="translate(226.090156, 235.494813)"><g><path d="M 14.921875 0.265625 C 13.953125 0.265625 13.109375 -0.0195312 12.390625 -0.59375 C 11.671875 -1.164062 10.875 -2.195312 10 -3.6875 L 7.265625 -8.328125 L 5.359375 -8.328125 L 5.359375 0 L 2.890625 0 L 2.890625 -14.75 C 2.890625 -15.6875 2.757812 -16.375 2.5 -16.8125 C 2.25 -17.257812 1.742188 -17.484375 0.984375 -17.484375 L 0.4375 -17.484375 L 0.4375 -18.03125 L 7.546875 -18.03125 C 9.273438 -18.03125 10.84375 -17.6875 12.25 -17 C 13.664062 -16.320312 14.375 -15.03125 14.375 -13.125 C 14.375 -10.695312 12.914062 -9.144531 10 -8.46875 L 12.875 -3.6875 C 13.539062 -2.5625 14.144531 -1.773438 14.6875 -1.328125 C 15.226562 -0.878906 15.851562 -0.617188 16.5625 -0.546875 L 16.5625 0 C 16.394531 0.0703125 16.160156 0.132812 15.859375 0.1875 C 15.554688 0.238281 15.242188 0.265625 14.921875 0.265625 Z M 7.40625 -9.296875 C 7.96875 -9.296875 8.582031 -9.429688 9.25 -9.703125 C 9.914062 -9.972656 10.476562 -10.398438 10.9375 -10.984375 C 11.40625 -11.566406 11.640625 -12.28125 11.640625 -13.125 C 11.640625 -14.007812 11.40625 -14.75 10.9375 -15.34375 C 10.476562 -15.9375 9.914062 -16.375 9.25 -16.65625 C 8.582031 -16.9375 7.96875 -17.078125 7.40625 -17.078125 C 6.769531 -17.078125 6.085938 -16.988281 5.359375 -16.8125 L 5.359375 -9.5625 C 6.085938 -9.382812 6.769531 -9.296875 7.40625 -9.296875 Z M 7.40625 -9.296875 "/></g></g></g><g fill="#000000" fill-opacity="1"><g transform="translate(242.241065, 235.494813)"><g><path d="M 2.890625 -14.75 C 2.890625 -15.6875 2.757812 -16.375 2.5 -16.8125 C 2.25 -17.257812 1.742188 -17.484375 0.984375 -17.484375 L 0.4375 -17.484375 L 0.4375 -18.03125 L 12.078125 -18.03125 C 13.628906 -18.03125 14.40625 -17.300781 14.40625 -15.84375 L 14.40625 -13.796875 L 13.859375 -13.796875 C 13.859375 -15.890625 12.71875 -16.9375 10.4375 -16.9375 L 5.359375 -16.9375 L 5.359375 -9.84375 L 12.734375 -9.84375 L 12.734375 -8.75 L 5.359375 -8.75 L 5.359375 -1.09375 L 10.140625 -1.09375 C 11.398438 -1.09375 12.382812 -1.316406 13.09375 -1.765625 C 13.800781 -2.222656 14.363281 -3 14.78125 -4.09375 L 15.328125 -3.96875 L 14.375 -1.359375 C 14.039062 -0.453125 13.359375 0 12.328125 0 L 2.890625 0 Z M 2.890625 -14.75 "/></g></g></g><g fill="#000000" fill-opacity="1"><g transform="translate(117.358557, 255.374222)"><g><path d="M 1.46875 -7.5 C 1.46875 -7.96875 1.398438 -8.3125 1.265625 -8.53125 C 1.140625 -8.757812 0.882812 -8.875 0.5 -8.875 L 0.21875 -8.875 L 0.21875 -9.15625 L 3.828125 -9.15625 C 4.835938 -9.15625 5.710938 -8.988281 6.453125 -8.65625 C 7.203125 -8.320312 7.578125 -7.679688 7.578125 -6.734375 C 7.578125 -6.296875 7.425781 -5.898438 7.125 -5.546875 C 6.832031 -5.191406 6.378906 -4.914062 5.765625 -4.71875 C 6.617188 -4.582031 7.210938 -4.328125 7.546875 -3.953125 C 7.890625 -3.585938 8.0625 -3.101562 8.0625 -2.5 C 8.0625 -1.5625 7.691406 -0.910156 6.953125 -0.546875 C 6.222656 -0.179688 5.320312 0 4.25 0 L 1.46875 0 Z M 4.03125 -4.921875 C 4.414062 -4.921875 4.773438 -4.992188 5.109375 -5.140625 C 5.453125 -5.285156 5.726562 -5.5 5.9375 -5.78125 C 6.144531 -6.0625 6.25 -6.398438 6.25 -6.796875 C 6.25 -7.210938 6.125 -7.5625 5.875 -7.84375 C 5.632812 -8.125 5.320312 -8.332031 4.9375 -8.46875 C 4.550781 -8.601562 4.160156 -8.671875 3.765625 -8.671875 C 3.441406 -8.671875 3.09375 -8.625 2.71875 -8.53125 L 2.71875 -4.921875 Z M 4.03125 -0.484375 C 4.875 -0.484375 5.523438 -0.648438 5.984375 -0.984375 C 6.441406 -1.316406 6.671875 -1.796875 6.671875 -2.421875 C 6.671875 -3.054688 6.445312 -3.539062 6 -3.875 C 5.550781 -4.207031 4.894531 -4.375 4.03125 -4.375 L 2.71875 -4.375 L 2.71875 -0.6875 C 3.164062 -0.550781 3.601562 -0.484375 4.03125 -0.484375 Z M 4.03125 -0.484375 "/></g></g></g><g fill="#000000" fill-opacity="1"><g transform="translate(127.723303, 255.374222)"><g><path d="M 3.53125 0.140625 C 2.90625 0.140625 2.375 -0.0078125 1.9375 -0.3125 C 1.507812 -0.613281 1.179688 -1.019531 0.953125 -1.53125 C 0.734375 -2.039062 0.625 -2.617188 0.625 -3.265625 C 0.625 -3.890625 0.734375 -4.460938 0.953125 -4.984375 C 1.179688 -5.503906 1.503906 -5.910156 1.921875 -6.203125 C 2.335938 -6.503906 2.832031 -6.65625 3.40625 -6.65625 C 4.332031 -6.65625 5.023438 -6.394531 5.484375 -5.875 C 5.941406 -5.351562 6.171875 -4.597656 6.171875 -3.609375 L 6.140625 -3.046875 L 1.9375 -3.046875 C 1.9375 -2.273438 2.101562 -1.644531 2.4375 -1.15625 C 2.769531 -0.664062 3.226562 -0.421875 3.8125 -0.421875 C 4.25 -0.421875 4.617188 -0.507812 4.921875 -0.6875 C 5.222656 -0.875 5.503906 -1.15625 5.765625 -1.53125 L 6.03125 -1.3125 C 5.726562 -0.8125 5.375 -0.441406 4.96875 -0.203125 C 4.5625 0.0234375 4.082031 0.140625 3.53125 0.140625 Z M 4.859375 -3.609375 C 4.859375 -4.421875 4.738281 -5.039062 4.5 -5.46875 C 4.257812 -5.894531 3.894531 -6.109375 3.40625 -6.109375 C 3.125 -6.109375 2.867188 -6 2.640625 -5.78125 C 2.421875 -5.5625 2.25 -5.257812 2.125 -4.875 C 2 -4.5 1.9375 -4.078125 1.9375 -3.609375 Z M 4.859375 -3.609375 "/></g></g></g><g fill="#000000" fill-opacity="1"><g transform="translate(136.228796, 255.374222)"><g><path d="M 3.171875 0.140625 C 2.109375 0.140625 1.394531 -0.046875 1.03125 -0.421875 C 0.875 -0.578125 0.773438 -0.753906 0.734375 -0.953125 C 0.703125 -1.148438 0.6875 -1.457031 0.6875 -1.875 L 0.953125 -1.875 C 1.035156 -1.40625 1.238281 -1.046875 1.5625 -0.796875 C 1.882812 -0.546875 2.332031 -0.421875 2.90625 -0.421875 C 3.40625 -0.421875 3.78125 -0.503906 4.03125 -0.671875 C 4.289062 -0.847656 4.421875 -1.085938 4.421875 -1.390625 C 4.421875 -1.660156 4.320312 -1.890625 4.125 -2.078125 C 3.925781 -2.273438 3.609375 -2.460938 3.171875 -2.640625 L 2.34375 -2.984375 C 1.789062 -3.203125 1.375 -3.457031 1.09375 -3.75 C 0.820312 -4.050781 0.6875 -4.421875 0.6875 -4.859375 C 0.6875 -5.421875 0.894531 -5.859375 1.3125 -6.171875 C 1.738281 -6.492188 2.289062 -6.65625 2.96875 -6.65625 C 3.988281 -6.65625 4.679688 -6.472656 5.046875 -6.109375 C 5.203125 -5.953125 5.296875 -5.773438 5.328125 -5.578125 C 5.367188 -5.378906 5.390625 -5.066406 5.390625 -4.640625 L 5.125 -4.640625 C 5.050781 -5.109375 4.851562 -5.46875 4.53125 -5.71875 C 4.21875 -5.976562 3.789062 -6.109375 3.25 -6.109375 C 2.8125 -6.109375 2.46875 -6.015625 2.21875 -5.828125 C 1.976562 -5.648438 1.859375 -5.421875 1.859375 -5.140625 C 1.859375 -4.648438 2.226562 -4.253906 2.96875 -3.953125 L 3.796875 -3.609375 C 4.429688 -3.347656 4.890625 -3.070312 5.171875 -2.78125 C 5.460938 -2.488281 5.609375 -2.117188 5.609375 -1.671875 C 5.609375 -1.097656 5.378906 -0.648438 4.921875 -0.328125 C 4.472656 -0.015625 3.890625 0.140625 3.171875 0.140625 Z M 3.171875 0.140625 "/></g></g></g><g fill="#000000" fill-opacity="1"><g transform="translate(144.151531, 255.374222)"><g><path d="M 2.921875 0.140625 C 2.410156 0.140625 2.003906 -0.00390625 1.703125 -0.296875 C 1.410156 -0.597656 1.265625 -1.054688 1.265625 -1.671875 L 1.265625 -5.96875 L 0.296875 -5.96875 L 0.296875 -6.515625 L 1.265625 -6.515625 L 1.265625 -7.765625 L 1.953125 -8.609375 L 2.515625 -8.609375 L 2.515625 -6.515625 L 4.171875 -6.515625 L 4.171875 -5.96875 L 2.515625 -5.96875 L 2.515625 -1.671875 C 2.515625 -0.835938 2.835938 -0.421875 3.484375 -0.421875 C 3.703125 -0.421875 3.890625 -0.441406 4.046875 -0.484375 C 4.203125 -0.535156 4.359375 -0.601562 4.515625 -0.6875 L 4.65625 -0.421875 C 4.445312 -0.265625 4.210938 -0.128906 3.953125 -0.015625 C 3.691406 0.0859375 3.347656 0.140625 2.921875 0.140625 Z M 2.921875 0.140625 "/></g></g></g><g fill="#000000" fill-opacity="1"><g transform="translate(150.575769, 255.374222)"><g/></g></g><g fill="#000000" fill-opacity="1"><g transform="translate(155.778991, 255.374222)"><g><path d="M 1.46875 -7.5 C 1.46875 -7.96875 1.398438 -8.3125 1.265625 -8.53125 C 1.140625 -8.757812 0.882812 -8.875 0.5 -8.875 L 0.21875 -8.875 L 0.21875 -9.15625 L 5.765625 -9.15625 C 6.546875 -9.15625 6.9375 -8.785156 6.9375 -8.046875 L 6.9375 -7 L 6.65625 -7 C 6.65625 -8.070312 6.078125 -8.609375 4.921875 -8.609375 L 2.71875 -8.609375 L 2.71875 -4.921875 L 5.859375 -4.921875 L 5.859375 -4.375 L 2.71875 -4.375 L 2.71875 0 L 1.46875 0 Z M 1.46875 -7.5 "/></g></g></g><g fill="#000000" fill-opacity="1"><g transform="translate(164.825608, 255.374222)"><g><path d="M 2.546875 0.140625 C 2.253906 0.140625 1.953125 0.078125 1.640625 -0.046875 C 1.335938 -0.171875 1.078125 -0.375 0.859375 -0.65625 C 0.648438 -0.945312 0.546875 -1.328125 0.546875 -1.796875 C 0.546875 -2.503906 0.867188 -3.003906 1.515625 -3.296875 C 2.171875 -3.597656 3.023438 -3.75 4.078125 -3.75 L 4.5 -3.75 C 4.5 -4.65625 4.375 -5.273438 4.125 -5.609375 C 3.875 -5.941406 3.507812 -6.109375 3.03125 -6.109375 C 2.625 -6.109375 2.296875 -6.019531 2.046875 -5.84375 C 1.796875 -5.664062 1.617188 -5.359375 1.515625 -4.921875 L 0.890625 -4.921875 C 0.890625 -5.234375 0.90625 -5.476562 0.9375 -5.65625 C 0.976562 -5.84375 1.078125 -6.015625 1.234375 -6.171875 C 1.398438 -6.335938 1.675781 -6.457031 2.0625 -6.53125 C 2.445312 -6.613281 2.863281 -6.65625 3.3125 -6.65625 C 4.0625 -6.65625 4.65625 -6.453125 5.09375 -6.046875 C 5.53125 -5.648438 5.75 -4.882812 5.75 -3.75 L 5.75 0 L 5.046875 0 L 4.5625 -0.625 L 4.5 -0.625 C 4.332031 -0.414062 4.085938 -0.234375 3.765625 -0.078125 C 3.441406 0.0664062 3.035156 0.140625 2.546875 0.140625 Z M 3.171875 -0.484375 C 3.484375 -0.484375 3.738281 -0.554688 3.9375 -0.703125 C 4.144531 -0.847656 4.332031 -1.050781 4.5 -1.3125 L 4.5 -3.1875 L 4.078125 -3.1875 C 3.390625 -3.1875 2.847656 -3.054688 2.453125 -2.796875 C 2.054688 -2.546875 1.859375 -2.210938 1.859375 -1.796875 C 1.859375 -1.378906 1.984375 -1.054688 2.234375 -0.828125 C 2.492188 -0.597656 2.804688 -0.484375 3.171875 -0.484375 Z M 3.171875 -0.484375 "/></g></g></g><g fill="#000000" fill-opacity="1"><g transform="translate(173.233977, 255.374222)"><g><path d="M 3.171875 0.140625 C 2.109375 0.140625 1.394531 -0.046875 1.03125 -0.421875 C 0.875 -0.578125 0.773438 -0.753906 0.734375 -0.953125 C 0.703125 -1.148438 0.6875 -1.457031 0.6875 -1.875 L 0.953125 -1.875 C 1.035156 -1.40625 1.238281 -1.046875 1.5625 -0.796875 C 1.882812 -0.546875 2.332031 -0.421875 2.90625 -0.421875 C 3.40625 -0.421875 3.78125 -0.503906 4.03125 -0.671875 C 4.289062 -0.847656 4.421875 -1.085938 4.421875 -1.390625 C 4.421875 -1.660156 4.320312 -1.890625 4.125 -2.078125 C 3.925781 -2.273438 3.609375 -2.460938 3.171875 -2.640625 L 2.34375 -2.984375 C 1.789062 -3.203125 1.375 -3.457031 1.09375 -3.75 C 0.820312 -4.050781 0.6875 -4.421875 0.6875 -4.859375 C 0.6875 -5.421875 0.894531 -5.859375 1.3125 -6.171875 C 1.738281 -6.492188 2.289062 -6.65625 2.96875 -6.65625 C 3.988281 -6.65625 4.679688 -6.472656 5.046875 -6.109375 C 5.203125 -5.953125 5.296875 -5.773438 5.328125 -5.578125 C 5.367188 -5.378906 5.390625 -5.066406 5.390625 -4.640625 L 5.125 -4.640625 C 5.050781 -5.109375 4.851562 -5.46875 4.53125 -5.71875 C 4.21875 -5.976562 3.789062 -6.109375 3.25 -6.109375 C 2.8125 -6.109375 2.46875 -6.015625 2.21875 -5.828125 C 1.976562 -5.648438 1.859375 -5.421875 1.859375 -5.140625 C 1.859375 -4.648438 2.226562 -4.253906 2.96875 -3.953125 L 3.796875 -3.609375 C 4.429688 -3.347656 4.890625 -3.070312 5.171875 -2.78125 C 5.460938 -2.488281 5.609375 -2.117188 5.609375 -1.671875 C 5.609375 -1.097656 5.378906 -0.648438 4.921875 -0.328125 C 4.472656 -0.015625 3.890625 0.140625 3.171875 0.140625 Z M 3.171875 0.140625 "/></g></g></g><g fill="#000000" fill-opacity="1"><g transform="translate(181.156715, 255.374222)"><g><path d="M 1 -7.5 C 1 -7.96875 0.929688 -8.3125 0.796875 -8.53125 C 0.671875 -8.757812 0.414062 -8.875 0.03125 -8.875 L -0.25 -8.875 L -0.25 -9.15625 L 1 -9.15625 C 1.34375 -9.15625 1.597656 -9.109375 1.765625 -9.015625 C 1.941406 -8.929688 2.066406 -8.773438 2.140625 -8.546875 C 2.210938 -8.316406 2.25 -7.96875 2.25 -7.5 L 2.25 -5.96875 C 2.445312 -6.15625 2.695312 -6.316406 3 -6.453125 C 3.3125 -6.585938 3.660156 -6.65625 4.046875 -6.65625 C 4.742188 -6.65625 5.3125 -6.46875 5.75 -6.09375 C 6.1875 -5.726562 6.40625 -5.082031 6.40625 -4.15625 L 6.40625 0 L 5.15625 0 L 5.15625 -4.15625 C 5.15625 -4.8125 5.007812 -5.285156 4.71875 -5.578125 C 4.425781 -5.878906 4.066406 -6.03125 3.640625 -6.03125 C 3.148438 -6.03125 2.6875 -5.785156 2.25 -5.296875 L 2.25 0 L 1 0 Z M 1 -7.5 "/></g></g></g><g fill="#000000" fill-opacity="1"><g transform="translate(190.231084, 255.374222)"><g><path d="M 1.734375 -7.359375 C 1.523438 -7.359375 1.34375 -7.441406 1.1875 -7.609375 C 1.03125 -7.785156 0.953125 -7.992188 0.953125 -8.234375 C 0.953125 -8.429688 1.007812 -8.582031 1.125 -8.6875 C 1.238281 -8.800781 1.394531 -8.859375 1.59375 -8.859375 C 1.8125 -8.859375 1.992188 -8.769531 2.140625 -8.59375 C 2.296875 -8.425781 2.375 -8.222656 2.375 -7.984375 C 2.375 -7.785156 2.316406 -7.628906 2.203125 -7.515625 C 2.085938 -7.410156 1.929688 -7.359375 1.734375 -7.359375 Z M 1.203125 -4.859375 C 1.203125 -5.328125 1.132812 -5.675781 1 -5.90625 C 0.875 -6.132812 0.617188 -6.25 0.234375 -6.25 L -0.046875 -6.25 L -0.046875 -6.515625 L 1.203125 -6.515625 C 1.546875 -6.515625 1.800781 -6.46875 1.96875 -6.375 C 2.144531 -6.289062 2.269531 -6.132812 2.34375 -5.90625 C 2.414062 -5.675781 2.453125 -5.328125 2.453125 -4.859375 L 2.453125 0 L 1.203125 0 Z M 1.203125 -4.859375 "/></g></g></g><g fill="#000000" fill-opacity="1"><g transform="translate(195.378813, 255.374222)"><g><path d="M 3.671875 0.140625 C 3.046875 0.140625 2.5 -0.0078125 2.03125 -0.3125 C 1.570312 -0.613281 1.222656 -1.019531 0.984375 -1.53125 C 0.742188 -2.050781 0.625 -2.628906 0.625 -3.265625 C 0.625 -3.890625 0.742188 -4.460938 0.984375 -4.984375 C 1.222656 -5.503906 1.570312 -5.910156 2.03125 -6.203125 C 2.5 -6.503906 3.046875 -6.65625 3.671875 -6.65625 C 4.304688 -6.65625 4.851562 -6.503906 5.3125 -6.203125 C 5.78125 -5.910156 6.132812 -5.503906 6.375 -4.984375 C 6.613281 -4.460938 6.734375 -3.890625 6.734375 -3.265625 C 6.734375 -2.628906 6.613281 -2.050781 6.375 -1.53125 C 6.132812 -1.019531 5.78125 -0.613281 5.3125 -0.3125 C 4.851562 -0.0078125 4.304688 0.140625 3.671875 0.140625 Z M 3.671875 -0.421875 C 4.015625 -0.421875 4.316406 -0.546875 4.578125 -0.796875 C 4.847656 -1.046875 5.050781 -1.382812 5.1875 -1.8125 C 5.332031 -2.25 5.40625 -2.734375 5.40625 -3.265625 C 5.40625 -3.785156 5.332031 -4.265625 5.1875 -4.703125 C 5.050781 -5.140625 4.847656 -5.484375 4.578125 -5.734375 C 4.316406 -5.984375 4.015625 -6.109375 3.671875 -6.109375 C 3.328125 -6.109375 3.023438 -5.984375 2.765625 -5.734375 C 2.503906 -5.484375 2.300781 -5.140625 2.15625 -4.703125 C 2.007812 -4.265625 1.9375 -3.785156 1.9375 -3.265625 C 1.9375 -2.734375 2.007812 -2.25 2.15625 -1.8125 C 2.300781 -1.382812 2.503906 -1.046875 2.765625 -0.796875 C 3.023438 -0.546875 3.328125 -0.421875 3.671875 -0.421875 Z M 3.671875 -0.421875 "/></g></g></g><g fill="#000000" fill-opacity="1"><g transform="translate(204.467064, 255.374222)"><g><path d="M 1.203125 -4.859375 C 1.203125 -5.328125 1.132812 -5.675781 1 -5.90625 C 0.875 -6.132812 0.617188 -6.25 0.234375 -6.25 L -0.046875 -6.25 L -0.046875 -6.515625 L 1.203125 -6.515625 C 1.546875 -6.515625 1.804688 -6.46875 1.984375 -6.375 C 2.171875 -6.289062 2.304688 -6.15625 2.390625 -5.96875 L 2.453125 -5.96875 C 2.648438 -6.15625 2.898438 -6.316406 3.203125 -6.453125 C 3.515625 -6.585938 3.867188 -6.65625 4.265625 -6.65625 C 4.953125 -6.65625 5.515625 -6.46875 5.953125 -6.09375 C 6.398438 -5.726562 6.625 -5.082031 6.625 -4.15625 L 6.625 0 L 5.375 0 L 5.375 -4.15625 C 5.375 -4.8125 5.226562 -5.285156 4.9375 -5.578125 C 4.644531 -5.878906 4.28125 -6.03125 3.84375 -6.03125 C 3.351562 -6.03125 2.890625 -5.785156 2.453125 -5.296875 L 2.453125 0 L 1.203125 0 Z M 1.203125 -4.859375 "/></g></g></g><g fill="#000000" fill-opacity="1"><g transform="translate(213.749561, 255.374222)"><g/></g></g><g fill="#000000" fill-opacity="1"><g transform="translate(218.952777, 255.374222)"><g><path d="M 3.90625 0.234375 C 3.40625 0.234375 2.90625 0.160156 2.40625 0.015625 C 1.914062 -0.117188 1.515625 -0.3125 1.203125 -0.5625 C 0.898438 -0.820312 0.75 -1.117188 0.75 -1.453125 L 0.75 -2.9375 L 1 -2.9375 C 1.15625 -2.007812 1.457031 -1.335938 1.90625 -0.921875 C 2.363281 -0.515625 2.988281 -0.3125 3.78125 -0.3125 C 4.28125 -0.3125 4.707031 -0.4375 5.0625 -0.6875 C 5.425781 -0.9375 5.609375 -1.285156 5.609375 -1.734375 C 5.609375 -2.117188 5.488281 -2.453125 5.25 -2.734375 C 5.007812 -3.023438 4.617188 -3.332031 4.078125 -3.65625 L 2.375 -4.65625 C 1.78125 -5.007812 1.359375 -5.363281 1.109375 -5.71875 C 0.867188 -6.082031 0.75 -6.523438 0.75 -7.046875 C 0.75 -7.753906 0.992188 -8.320312 1.484375 -8.75 C 1.984375 -9.1875 2.632812 -9.40625 3.4375 -9.40625 C 3.914062 -9.40625 4.382812 -9.335938 4.84375 -9.203125 C 5.300781 -9.066406 5.679688 -8.867188 5.984375 -8.609375 C 6.285156 -8.359375 6.4375 -8.070312 6.4375 -7.75 L 6.4375 -6.25 L 6.1875 -6.25 C 6.03125 -7.175781 5.734375 -7.84375 5.296875 -8.25 C 4.859375 -8.65625 4.238281 -8.859375 3.4375 -8.859375 C 3.007812 -8.859375 2.632812 -8.726562 2.3125 -8.46875 C 1.988281 -8.207031 1.828125 -7.867188 1.828125 -7.453125 C 1.828125 -7.066406 1.945312 -6.75 2.1875 -6.5 C 2.425781 -6.25 2.820312 -5.960938 3.375 -5.640625 L 5.078125 -4.625 C 5.703125 -4.238281 6.144531 -3.882812 6.40625 -3.5625 C 6.664062 -3.238281 6.796875 -2.828125 6.796875 -2.328125 C 6.796875 -1.554688 6.535156 -0.9375 6.015625 -0.46875 C 5.503906 0 4.800781 0.234375 3.90625 0.234375 Z M 3.90625 0.234375 "/></g></g></g><g fill="#000000" fill-opacity="1"><g transform="translate(228.082644, 255.374222)"><g><path d="M 2.921875 0.140625 C 2.410156 0.140625 2.003906 -0.00390625 1.703125 -0.296875 C 1.410156 -0.597656 1.265625 -1.054688 1.265625 -1.671875 L 1.265625 -5.96875 L 0.296875 -5.96875 L 0.296875 -6.515625 L 1.265625 -6.515625 L 1.265625 -7.765625 L 1.953125 -8.609375 L 2.515625 -8.609375 L 2.515625 -6.515625 L 4.171875 -6.515625 L 4.171875 -5.96875 L 2.515625 -5.96875 L 2.515625 -1.671875 C 2.515625 -0.835938 2.835938 -0.421875 3.484375 -0.421875 C 3.703125 -0.421875 3.890625 -0.441406 4.046875 -0.484375 C 4.203125 -0.535156 4.359375 -0.601562 4.515625 -0.6875 L 4.65625 -0.421875 C 4.445312 -0.265625 4.210938 -0.128906 3.953125 -0.015625 C 3.691406 0.0859375 3.347656 0.140625 2.921875 0.140625 Z M 2.921875 0.140625 "/></g></g></g><g fill="#000000" fill-opacity="1"><g transform="translate(234.506876, 255.374222)"><g><path d="M 3.671875 0.140625 C 3.046875 0.140625 2.5 -0.0078125 2.03125 -0.3125 C 1.570312 -0.613281 1.222656 -1.019531 0.984375 -1.53125 C 0.742188 -2.050781 0.625 -2.628906 0.625 -3.265625 C 0.625 -3.890625 0.742188 -4.460938 0.984375 -4.984375 C 1.222656 -5.503906 1.570312 -5.910156 2.03125 -6.203125 C 2.5 -6.503906 3.046875 -6.65625 3.671875 -6.65625 C 4.304688 -6.65625 4.851562 -6.503906 5.3125 -6.203125 C 5.78125 -5.910156 6.132812 -5.503906 6.375 -4.984375 C 6.613281 -4.460938 6.734375 -3.890625 6.734375 -3.265625 C 6.734375 -2.628906 6.613281 -2.050781 6.375 -1.53125 C 6.132812 -1.019531 5.78125 -0.613281 5.3125 -0.3125 C 4.851562 -0.0078125 4.304688 0.140625 3.671875 0.140625 Z M 3.671875 -0.421875 C 4.015625 -0.421875 4.316406 -0.546875 4.578125 -0.796875 C 4.847656 -1.046875 5.050781 -1.382812 5.1875 -1.8125 C 5.332031 -2.25 5.40625 -2.734375 5.40625 -3.265625 C 5.40625 -3.785156 5.332031 -4.265625 5.1875 -4.703125 C 5.050781 -5.140625 4.847656 -5.484375 4.578125 -5.734375 C 4.316406 -5.984375 4.015625 -6.109375 3.671875 -6.109375 C 3.328125 -6.109375 3.023438 -5.984375 2.765625 -5.734375 C 2.503906 -5.484375 2.300781 -5.140625 2.15625 -4.703125 C 2.007812 -4.265625 1.9375 -3.785156 1.9375 -3.265625 C 1.9375 -2.734375 2.007812 -2.25 2.15625 -1.8125 C 2.300781 -1.382812 2.503906 -1.046875 2.765625 -0.796875 C 3.023438 -0.546875 3.328125 -0.421875 3.671875 -0.421875 Z M 3.671875 -0.421875 "/></g></g></g><g fill="#000000" fill-opacity="1"><g transform="translate(243.595121, 255.374222)"><g><path d="M 1.109375 -4.859375 C 1.109375 -5.328125 1.039062 -5.675781 0.90625 -5.90625 C 0.78125 -6.132812 0.523438 -6.25 0.140625 -6.25 L 0 -6.25 L 0 -6.515625 L 1.109375 -6.515625 C 1.460938 -6.515625 1.726562 -6.46875 1.90625 -6.375 C 2.082031 -6.28125 2.210938 -6.117188 2.296875 -5.890625 L 2.359375 -5.890625 C 2.523438 -6.109375 2.75 -6.289062 3.03125 -6.4375 C 3.3125 -6.582031 3.644531 -6.65625 4.03125 -6.65625 C 4.394531 -6.65625 4.671875 -6.585938 4.859375 -6.453125 C 5.015625 -6.328125 5.175781 -6.117188 5.34375 -5.828125 L 4.78125 -5.40625 C 4.6875 -5.550781 4.539062 -5.65625 4.34375 -5.71875 C 4.144531 -5.789062 3.921875 -5.828125 3.671875 -5.828125 C 3.398438 -5.828125 3.144531 -5.765625 2.90625 -5.640625 C 2.675781 -5.515625 2.492188 -5.347656 2.359375 -5.140625 L 2.359375 0 L 1.109375 0 Z M 1.109375 -4.859375 "/></g></g></g><g fill="#000000" fill-opacity="1"><g transform="translate(250.837971, 255.374222)"><g><path d="M 3.53125 0.140625 C 2.90625 0.140625 2.375 -0.0078125 1.9375 -0.3125 C 1.507812 -0.613281 1.179688 -1.019531 0.953125 -1.53125 C 0.734375 -2.039062 0.625 -2.617188 0.625 -3.265625 C 0.625 -3.890625 0.734375 -4.460938 0.953125 -4.984375 C 1.179688 -5.503906 1.503906 -5.910156 1.921875 -6.203125 C 2.335938 -6.503906 2.832031 -6.65625 3.40625 -6.65625 C 4.332031 -6.65625 5.023438 -6.394531 5.484375 -5.875 C 5.941406 -5.351562 6.171875 -4.597656 6.171875 -3.609375 L 6.140625 -3.046875 L 1.9375 -3.046875 C 1.9375 -2.273438 2.101562 -1.644531 2.4375 -1.15625 C 2.769531 -0.664062 3.226562 -0.421875 3.8125 -0.421875 C 4.25 -0.421875 4.617188 -0.507812 4.921875 -0.6875 C 5.222656 -0.875 5.503906 -1.15625 5.765625 -1.53125 L 6.03125 -1.3125 C 5.726562 -0.8125 5.375 -0.441406 4.96875 -0.203125 C 4.5625 0.0234375 4.082031 0.140625 3.53125 0.140625 Z M 4.859375 -3.609375 C 4.859375 -4.421875 4.738281 -5.039062 4.5 -5.46875 C 4.257812 -5.894531 3.894531 -6.109375 3.40625 -6.109375 C 3.125 -6.109375 2.867188 -6 2.640625 -5.78125 C 2.421875 -5.5625 2.25 -5.257812 2.125 -4.875 C 2 -4.5 1.9375 -4.078125 1.9375 -3.609375 Z M 4.859375 -3.609375 "/></g></g></g></svg>